<svg xmlns="http://www.w3.org/2000/svg" viewBox="0 0 460 139" fill="none" role="img" aria-label="UP arrow">
  <path d="M275 0h122v1h-122zM275 1h124v1h-124zM275 2h125v1h-125zM275 3h126v1h-126zM275 4h127v1h-127zM275 5h129v1h-129zM275 6h130v1h-130zM275 7h131v1h-131zM275 8h133v1h-133zM275 9h134v1h-134zM275 10h135v1h-135zM275 11h136v1h-136zM275 12h138v1h-138zM275 13h139v1h-139zM275 14h140v1h-140zM275 15h141v1h-141zM275 16h143v1h-143zM275 17h144v1h-144zM275 18h145v1h-145zM275 19h146v1h-146zM275 20h148v1h-148zM275 21h149v1h-149zM275 22h150v1h-150zM275 23h151v1h-151zM275 24h151v1h-151zM275 25h151v1h-151zM275 26h152v1h-152zM275 27h152v1h-152zM275 28h152v1h-152zM275 29h153v1h-153zM275 30h153v1h-153zM275 31h153v1h-153zM275 32h154v1h-154zM275 33h154v1h-154zM275 34h154v1h-154zM275 35h155v1h-155zM275 36h155v1h-155zM275 37h155v1h-155zM275 38h156v1h-156zM275 39h156v1h-156zM275 40h156v1h-156zM275 41h157v1h-157zM275 42h157v1h-157zM275 43h157v1h-157zM275 44h158v1h-158zM276 45h157v1h-157zM358 46h76v1h-76zM358 47h76v1h-76zM357 48h77v1h-77zM357 49h78v1h-78zM356 50h79v1h-79zM356 51h79v1h-79zM356 52h80v1h-80zM355 53h81v1h-81zM355 54h81v1h-81zM354 55h83v1h-83zM354 56h83v1h-83zM353 57h84v1h-84zM353 58h85v1h-85zM352 59h86v1h-86zM352 60h86v1h-86zM351 61h88v1h-88zM351 62h88v1h-88zM350 63h89v1h-89zM350 64h90v1h-90zM350 65h90v1h-90zM349 66h91v1h-91zM349 67h92v1h-92zM348 68h93v1h-93zM348 69h93v1h-93zM347 70h95v1h-95zM347 71h95v1h-95zM346 72h96v1h-96zM346 73h97v1h-97zM345 74h98v1h-98zM345 75h98v1h-98zM344 76h100v1h-100zM344 77h51v1h-51zM396 77h48v1h-48zM343 78h51v1h-51zM396 78h48v1h-48zM343 79h51v1h-51zM396 79h49v1h-49zM343 80h50v1h-50zM397 80h48v1h-48zM342 81h51v1h-51zM397 81h48v1h-48zM342 82h50v1h-50zM397 82h49v1h-49zM341 83h51v1h-51zM398 83h48v1h-48zM341 84h50v1h-50zM398 84h48v1h-48zM340 85h51v1h-51zM398 85h49v1h-49zM340 86h50v1h-50zM399 86h48v1h-48zM339 87h51v1h-51zM399 87h48v1h-48zM339 88h50v1h-50zM399 88h49v1h-49zM338 89h51v1h-51zM400 89h48v1h-48zM338 90h50v1h-50zM400 90h48v1h-48zM337 91h51v1h-51zM400 91h49v1h-49zM337 92h51v1h-51zM401 92h48v1h-48zM313 93h74v1h-74zM401 93h48v1h-48zM313 94h74v1h-74zM401 94h49v1h-49zM313 95h73v1h-73zM402 95h48v1h-48zM313 96h73v1h-73zM402 96h48v1h-48zM313 97h72v1h-72zM402 97h49v1h-49zM313 98h72v1h-72zM403 98h48v1h-48zM313 99h71v1h-71zM403 99h48v1h-48zM313 100h71v1h-71zM403 100h49v1h-49zM313 101h70v1h-70zM404 101h48v1h-48zM313 102h70v1h-70zM404 102h48v1h-48zM313 103h69v1h-69zM404 103h49v1h-49zM313 104h69v1h-69zM405 104h48v1h-48zM313 105h69v1h-69zM405 105h48v1h-48zM313 106h68v1h-68zM405 106h49v1h-49zM313 107h68v1h-68zM406 107h48v1h-48zM313 108h67v1h-67zM406 108h48v1h-48zM313 109h67v1h-67zM406 109h49v1h-49zM313 110h66v1h-66zM407 110h48v1h-48zM313 111h66v1h-66zM407 111h48v1h-48zM313 112h65v1h-65zM407 112h49v1h-49zM313 113h65v1h-65zM408 113h48v1h-48zM313 114h64v1h-64zM408 114h48v1h-48zM313 115h64v1h-64zM408 115h49v1h-49zM313 116h63v1h-63zM409 116h48v1h-48zM313 117h63v1h-63zM409 117h48v1h-48zM313 118h62v1h-62zM409 118h49v1h-49zM313 119h62v1h-62zM410 119h48v1h-48zM313 120h62v1h-62zM410 120h48v1h-48zM313 121h61v1h-61zM410 121h49v1h-49zM313 122h61v1h-61zM411 122h48v1h-48zM313 123h60v1h-60zM411 123h48v1h-48zM313 124h60v1h-60zM411 124h48v1h-48zM313 125h59v1h-59zM412 125h45v1h-45zM313 126h59v1h-59zM412 126h42v1h-42zM313 127h58v1h-58zM412 127h39v1h-39zM313 128h58v1h-58zM413 128h35v1h-35zM313 129h57v1h-57zM413 129h32v1h-32zM313 130h57v1h-57zM413 130h29v1h-29zM313 131h56v1h-56zM414 131h25v1h-25zM313 132h56v1h-56zM414 132h22v1h-22zM313 133h56v1h-56zM414 133h19v1h-19zM313 134h55v1h-55zM415 134h15v1h-15zM313 135h55v1h-55zM415 135h12v1h-12zM313 136h54v1h-54zM415 136h9v1h-9zM313 137h54v1h-54zM416 137h5v1h-5zM314 138h52v1h-52zM416 138h2v1h-2z" fill="currentColor"></path>
</svg>