<svg xmlns="http://www.w3.org/2000/svg" viewBox="0 0 460 139" fill="none" role="img" aria-label="UP">
  <path d="M0 3h35v1h-35zM125 3h34v1h-34zM175 3h50v1h-50zM0 4h35v1h-35zM124 4h36v1h-36zM174 4h58v1h-58zM0 5h35v1h-35zM124 5h36v1h-36zM174 5h61v1h-61zM0 6h35v1h-35zM124 6h36v1h-36zM174 6h64v1h-64zM0 7h35v1h-35zM124 7h36v1h-36zM174 7h66v1h-66zM0 8h35v1h-35zM124 8h36v1h-36zM174 8h68v1h-68zM0 9h35v1h-35zM124 9h36v1h-36zM174 9h70v1h-70zM0 10h35v1h-35zM124 10h36v1h-36zM174 10h72v1h-72zM0 11h35v1h-35zM124 11h36v1h-36zM174 11h73v1h-73zM0 12h35v1h-35zM124 12h36v1h-36zM174 12h74v1h-74zM0 13h35v1h-35zM124 13h36v1h-36zM174 13h76v1h-76zM0 14h35v1h-35zM124 14h36v1h-36zM174 14h77v1h-77zM0 15h35v1h-35zM124 15h36v1h-36zM174 15h78v1h-78zM0 16h35v1h-35zM124 16h36v1h-36zM174 16h79v1h-79zM0 17h35v1h-35zM124 17h36v1h-36zM174 17h80v1h-80zM0 18h35v1h-35zM124 18h36v1h-36zM174 18h81v1h-81zM0 19h35v1h-35zM124 19h36v1h-36zM174 19h82v1h-82zM0 20h35v1h-35zM124 20h36v1h-36zM174 20h83v1h-83zM0 21h35v1h-35zM124 21h36v1h-36zM174 21h83v1h-83zM0 22h35v1h-35zM124 22h36v1h-36zM174 22h84v1h-84zM0 23h35v1h-35zM124 23h36v1h-36zM174 23h85v1h-85zM0 24h35v1h-35zM124 24h36v1h-36zM174 24h86v1h-86zM0 25h35v1h-35zM124 25h36v1h-36zM174 25h86v1h-86zM0 26h35v1h-35zM124 26h36v1h-36zM174 26h87v1h-87zM0 27h35v1h-35zM124 27h36v1h-36zM174 27h87v1h-87zM0 28h35v1h-35zM124 28h36v1h-36zM174 28h88v1h-88zM0 29h35v1h-35zM124 29h36v1h-36zM174 29h88v1h-88zM0 30h35v1h-35zM124 30h36v1h-36zM174 30h32v1h-32zM223 30h40v1h-40zM0 31h35v1h-35zM124 31h36v1h-36zM174 31h32v1h-32zM226 31h37v1h-37zM0 32h35v1h-35zM124 32h36v1h-36zM174 32h32v1h-32zM227 32h37v1h-37zM0 33h35v1h-35zM124 33h36v1h-36zM174 33h32v1h-32zM229 33h35v1h-35zM0 34h35v1h-35zM124 34h36v1h-36zM174 34h32v1h-32zM230 34h34v1h-34zM0 35h35v1h-35zM124 35h36v1h-36zM174 35h32v1h-32zM231 35h34v1h-34zM0 36h35v1h-35zM124 36h36v1h-36zM174 36h32v1h-32zM231 36h34v1h-34zM0 37h35v1h-35zM124 37h36v1h-36zM174 37h32v1h-32zM232 37h33v1h-33zM0 38h35v1h-35zM124 38h36v1h-36zM174 38h32v1h-32zM232 38h33v1h-33zM0 39h35v1h-35zM124 39h36v1h-36zM174 39h32v1h-32zM233 39h33v1h-33zM0 40h35v1h-35zM124 40h36v1h-36zM174 40h32v1h-32zM233 40h33v1h-33zM0 41h35v1h-35zM124 41h36v1h-36zM174 41h32v1h-32zM234 41h32v1h-32zM0 42h35v1h-35zM124 42h36v1h-36zM174 42h32v1h-32zM234 42h32v1h-32zM0 43h35v1h-35zM124 43h36v1h-36zM174 43h32v1h-32zM234 43h32v1h-32zM0 44h35v1h-35zM124 44h36v1h-36zM174 44h32v1h-32zM234 44h32v1h-32zM0 45h35v1h-35zM124 45h36v1h-36zM174 45h32v1h-32zM234 45h32v1h-32zM0 46h35v1h-35zM124 46h36v1h-36zM174 46h32v1h-32zM234 46h32v1h-32zM0 47h35v1h-35zM124 47h36v1h-36zM174 47h32v1h-32zM234 47h32v1h-32zM0 48h35v1h-35zM124 48h36v1h-36zM174 48h32v1h-32zM234 48h32v1h-32zM0 49h35v1h-35zM124 49h36v1h-36zM174 49h32v1h-32zM234 49h32v1h-32zM0 50h35v1h-35zM124 50h36v1h-36zM174 50h32v1h-32zM234 50h32v1h-32zM0 51h35v1h-35zM124 51h36v1h-36zM174 51h32v1h-32zM234 51h32v1h-32zM0 52h35v1h-35zM124 52h36v1h-36zM174 52h32v1h-32zM234 52h32v1h-32zM0 53h35v1h-35zM124 53h36v1h-36zM174 53h32v1h-32zM234 53h32v1h-32zM0 54h35v1h-35zM124 54h36v1h-36zM174 54h32v1h-32zM234 54h32v1h-32zM0 55h35v1h-35zM124 55h36v1h-36zM174 55h32v1h-32zM234 55h32v1h-32zM0 56h35v1h-35zM124 56h36v1h-36zM174 56h32v1h-32zM233 56h33v1h-33zM0 57h35v1h-35zM124 57h36v1h-36zM174 57h32v1h-32zM233 57h33v1h-33zM0 58h35v1h-35zM124 58h36v1h-36zM174 58h32v1h-32zM232 58h33v1h-33zM0 59h35v1h-35zM124 59h36v1h-36zM174 59h32v1h-32zM232 59h33v1h-33zM0 60h35v1h-35zM124 60h36v1h-36zM174 60h32v1h-32zM231 60h34v1h-34zM0 61h35v1h-35zM124 61h36v1h-36zM174 61h32v1h-32zM230 61h34v1h-34zM0 62h35v1h-35zM124 62h36v1h-36zM174 62h32v1h-32zM230 62h34v1h-34zM0 63h35v1h-35zM124 63h36v1h-36zM174 63h32v1h-32zM228 63h36v1h-36zM0 64h35v1h-35zM124 64h36v1h-36zM174 64h32v1h-32zM227 64h36v1h-36zM0 65h35v1h-35zM124 65h36v1h-36zM174 65h32v1h-32zM225 65h38v1h-38zM0 66h35v1h-35zM124 66h36v1h-36zM174 66h89v1h-89zM0 67h35v1h-35zM124 67h36v1h-36zM174 67h88v1h-88zM0 68h35v1h-35zM124 68h36v1h-36zM174 68h88v1h-88zM0 69h35v1h-35zM124 69h36v1h-36zM174 69h87v1h-87zM0 70h35v1h-35zM124 70h36v1h-36zM174 70h86v1h-86zM0 71h35v1h-35zM124 71h36v1h-36zM174 71h86v1h-86zM0 72h35v1h-35zM124 72h36v1h-36zM174 72h85v1h-85zM0 73h35v1h-35zM124 73h36v1h-36zM174 73h84v1h-84zM0 74h35v1h-35zM124 74h36v1h-36zM174 74h84v1h-84zM0 75h35v1h-35zM124 75h36v1h-36zM174 75h83v1h-83zM0 76h35v1h-35zM124 76h36v1h-36zM174 76h82v1h-82zM0 77h35v1h-35zM124 77h36v1h-36zM174 77h81v1h-81zM0 78h35v1h-35zM124 78h36v1h-36zM174 78h80v1h-80zM0 79h35v1h-35zM124 79h36v1h-36zM174 79h79v1h-79zM0 80h35v1h-35zM124 80h36v1h-36zM174 80h78v1h-78zM0 81h35v1h-35zM124 81h36v1h-36zM174 81h77v1h-77zM0 82h35v1h-35zM124 82h36v1h-36zM174 82h76v1h-76zM0 83h35v1h-35zM124 83h36v1h-36zM174 83h75v1h-75zM0 84h35v1h-35zM124 84h36v1h-36zM174 84h74v1h-74zM0 85h35v1h-35zM124 85h36v1h-36zM174 85h72v1h-72zM0 86h35v1h-35zM124 86h36v1h-36zM174 86h71v1h-71zM0 87h35v1h-35zM124 87h36v1h-36zM174 87h69v1h-69zM0 88h35v1h-35zM124 88h36v1h-36zM174 88h67v1h-67zM0 89h35v1h-35zM124 89h35v1h-35zM174 89h65v1h-65zM0 90h35v1h-35zM124 90h35v1h-35zM174 90h63v1h-63zM0 91h36v1h-36zM124 91h35v1h-35zM174 91h60v1h-60zM0 92h36v1h-36zM123 92h36v1h-36zM174 92h55v1h-55zM0 93h36v1h-36zM123 93h36v1h-36zM174 93h35v1h-35zM0 94h37v1h-37zM122 94h37v1h-37zM174 94h35v1h-35zM0 95h38v1h-38zM122 95h37v1h-37zM174 95h35v1h-35zM0 96h38v1h-38zM121 96h38v1h-38zM174 96h35v1h-35zM1 97h39v1h-39zM120 97h38v1h-38zM174 97h35v1h-35zM1 98h40v1h-40zM118 98h40v1h-40zM174 98h35v1h-35zM1 99h43v1h-43zM116 99h42v1h-42zM174 99h35v1h-35zM1 100h157v1h-157zM174 100h35v1h-35zM2 101h155v1h-155zM174 101h35v1h-35zM2 102h155v1h-155zM174 102h35v1h-35zM2 103h155v1h-155zM174 103h35v1h-35zM3 104h153v1h-153zM174 104h35v1h-35zM3 105h153v1h-153zM174 105h35v1h-35zM4 106h152v1h-152zM174 106h35v1h-35zM4 107h151v1h-151zM174 107h35v1h-35zM5 108h150v1h-150zM174 108h35v1h-35zM5 109h149v1h-149zM174 109h35v1h-35zM6 110h148v1h-148zM174 110h35v1h-35zM6 111h147v1h-147zM174 111h35v1h-35zM7 112h145v1h-145zM174 112h35v1h-35zM7 113h145v1h-145zM174 113h35v1h-35zM8 114h143v1h-143zM174 114h35v1h-35zM9 115h141v1h-141zM174 115h35v1h-35zM10 116h139v1h-139zM174 116h35v1h-35zM10 117h139v1h-139zM174 117h35v1h-35zM11 118h137v1h-137zM174 118h35v1h-35zM12 119h135v1h-135zM174 119h35v1h-35zM13 120h133v1h-133zM174 120h35v1h-35zM14 121h131v1h-131zM174 121h35v1h-35zM15 122h129v1h-129zM174 122h35v1h-35zM16 123h127v1h-127zM174 123h35v1h-35zM17 124h125v1h-125zM174 124h35v1h-35zM19 125h121v1h-121zM174 125h35v1h-35zM20 126h119v1h-119zM174 126h35v1h-35zM21 127h117v1h-117zM174 127h35v1h-35zM23 128h113v1h-113zM174 128h35v1h-35zM25 129h110v1h-110zM174 129h35v1h-35zM27 130h106v1h-106zM174 130h35v1h-35zM29 131h101v1h-101zM174 131h35v1h-35zM31 132h97v1h-97zM174 132h35v1h-35zM34 133h91v1h-91zM174 133h35v1h-35zM39 134h82v1h-82zM174 134h35v1h-35z" fill="currentColor"></path>
</svg>